0
SECTION
2
HEADER
9
$INSUNITS
70
4
9
$ACADVER
1
AC1014
9
$HANDSEED
5
FFFF
0
ENDSEC
0
SECTION
2
TABLES
0
TABLE
2
VPORT
5
8
100
AcDbSymbolTable
0
ENDTAB
0
TABLE
2
LTYPE
5
5
100
AcDbSymbolTable
0
LTYPE
5
14
100
AcDbSymbolTableRecord
100
AcDbLinetypeTableRecord
2
BYBLOCK
70
0
0
LTYPE
5
15
100
AcDbSymbolTableRecord
100
AcDbLinetypeTableRecord
2
BYLAYER
70
0
0
ENDTAB
0
TABLE
2
LAYER
5
2
100
AcDbSymbolTable
70
2
0
LAYER
5
50
100
AcDbSymbolTableRecord
100
AcDbLayerTableRecord
2
0
70
0
6
CONTINUOUS
0
ENDTAB
0
TABLE
2
STYLE
5
3
100
AcDbSymbolTable
70
1
0
STYLE
5
11
100
AcDbSymbolTableRecord
100
AcDbTextStyleTableRecord
2
STANDARD
70
0
0
ENDTAB
0
TABLE
2
VIEW
5
6
100
AcDbSymbolTable
70
0
0
ENDTAB
0
TABLE
2
UCS
5
7
100
AcDbSymbolTable
70
0
0
ENDTAB
0
TABLE
2
APPID
5
9
100
AcDbSymbolTable
70
2
0
APPID
5
12
100
AcDbSymbolTableRecord
100
AcDbRegAppTableRecord
2
ACAD
70
0
0
ENDTAB
0
TABLE
2
DIMSTYLE
5
A
100
AcDbSymbolTable
70
1
0
ENDTAB
0
TABLE
2
BLOCK_RECORD
5
1
100
AcDbSymbolTable
70
1
0
BLOCK_RECORD
5
1F
100
AcDbSymbolTableRecord
100
AcDbBlockTableRecord
2
*MODEL_SPACE
0
BLOCK_RECORD
5
1B
100
AcDbSymbolTableRecord
100
AcDbBlockTableRecord
2
*PAPER_SPACE
0
ENDTAB
0
ENDSEC
0
SECTION
2
BLOCKS
0
BLOCK
5
20
100
AcDbEntity
100
AcDbBlockBegin
2
*MODEL_SPACE
0
ENDBLK
5
21
100
AcDbEntity
100
AcDbBlockEnd
0
BLOCK
5
1C
100
AcDbEntity
100
AcDbBlockBegin
2
*PAPER_SPACE
0
ENDBLK
5
1D
100
AcDbEntity
100
AcDbBlockEnd
0
ENDSEC
0
SECTION
2
ENTITIES
0
LWPOLYLINE
5
100
100
AcDbEntity
8
0
100
AcDbPolyline
90
4
70
1
43
0.0
10
-13.713375000000001
20
-24.345551000000007
10
-11.273153000000001
20
-24.345551000000007
10
-11.273153000000001
20
-17.205934000000003
10
-13.713375000000001
20
-17.205934000000003
0
LWPOLYLINE
5
101
100
AcDbEntity
8
0
100
AcDbPolyline
90
4
70
1
43
0.0
10
-24.800000000000018
20
-217.00000000000003
10
-24.800000000000011
20
5.9999999999999334
10
-0.29999999999999805
20
5.9999999999999432
10
-0.29999999999999805
20
-217.00000000000003
0
LWPOLYLINE
5
102
100
AcDbEntity
8
0
100
AcDbPolyline
90
5
70
1
43
0.0
10
-18.743217000000001
20
-123.87022399999999
10
-12.273153000000001
20
-123.87022399999999
10
-12.273153000000001
20
-122.13028000000001
10
-15.932877000000001
20
-122.11012400000001
10
-18.694144981067595
20
-118.61139043631493
0
LWPOLYLINE
5
103
100
AcDbEntity
8
0
100
AcDbPolyline
90
3
70
1
43
0.0
10
-11.794188357448244
20
-71.160720000000012
10
-18.743217000000001
20
-71.160720000000012
10
-18.743217000000001
20
-85.083346751930847
0
LWPOLYLINE
5
104
100
AcDbEntity
8
0
100
AcDbPolyline
90
4
70
1
43
0.0
10
-7.2433110000000012
20
-36.550489000000006
10
-13.713375000000001
20
-36.550489000000006
10
-13.713375000000001
20
-38.510578000000002
10
-7.2433110000000012
20
-38.510578000000002
0
LWPOLYLINE
5
105
100
AcDbEntity
8
0
100
AcDbPolyline
90
4
70
1
43
0.0
10
-14.013375000000002
20
-62.415579000000001
10
-14.013375000000002
20
-65.055499999999995
10
-11.973153
20
-65.055499999999995
10
-11.973153
20
-62.415579000000001
0
LWPOLYLINE
5
106
100
AcDbEntity
8
0
100
AcDbPolyline
90
4
70
1
43
0.0
10
-14.013375000000002
20
-58.135736999999999
10
-11.973153
20
-58.135736999999999
10
-11.973153
20
-55.555760000000006
10
-14.013375000000002
20
-55.555760000000006
0
LWPOLYLINE
5
107
100
AcDbEntity
8
0
100
AcDbPolyline
90
4
70
1
43
0.0
10
-13.733012
20
-44.110751000000008
10
-12.233362000000001
20
-44.130907000000008
10
-12.233362000000001
20
-42.630738000000001
10
-13.753166
20
-42.630738000000001
0
LWPOLYLINE
5
108
100
AcDbEntity
8
0
100
AcDbPolyline
90
3
70
1
43
0.0
10
-6.8433110000000008
20
-62.839969585197053
10
-6.8433110000000008
20
-57.621653274576133
10
-9.9743002645088428
20
-60.283400942182787
0
LWPOLYLINE
5
109
100
AcDbEntity
8
0
100
AcDbPolyline
90
3
70
1
43
0.0
10
-19.143217
20
-62.864626818497953
10
-16.012264725101662
20
-60.255505576201578
10
-19.143217
20
-57.646376506048256
0
LWPOLYLINE
5
110
100
AcDbEntity
8
0
100
AcDbPolyline
90
3
70
1
43
0.0
10
-13.445400377659544
20
-83.160791999999987
10
-7.2433110000000012
20
-83.160791999999987
10
-7.2433110000000021
20
-70.647528739085359
0
LWPOLYLINE
5
111
100
AcDbEntity
8
0
100
AcDbPolyline
90
4
70
1
43
0.0
10
-13.713375000000001
20
-156.85994199999999
10
-7.2433110000000012
20
-156.85994199999999
10
-7.2433110000000012
20
-155.42023600000002
10
-13.713375000000001
20
-155.42023600000002
0
LWPOLYLINE
5
112
100
AcDbEntity
8
0
100
AcDbPolyline
90
6
70
1
43
0.0
10
-11.753288000000001
20
-115.19013400000003
10
-14.433226999999999
20
-115.19013400000003
10
-14.433226999999999
20
-117.93053500000001
10
-7.2433110000000012
20
-117.93053500000001
10
-7.2433110000000012
20
-115.93013999999999
10
-11.753288000000001
20
-115.93013999999999
0
LWPOLYLINE
5
113
100
AcDbEntity
8
0
100
AcDbPolyline
90
4
70
1
43
0.0
10
-7.2433110000000021
20
-174.79696350328078
10
-14.013098000000001
20
-180.64505300000002
10
-13.992944000000001
20
-182.325053
10
-7.2433110000000012
20
-182.30238072090407
0
LWPOLYLINE
5
114
100
AcDbEntity
8
0
100
AcDbPolyline
90
3
70
1
43
0.0
10
-18.743217000000001
20
-177.73495089581428
10
-14.415860405156733
20
-173.98522200000002
10
-18.743217000000001
20
-173.98522199999999
0
LWPOLYLINE
5
115
100
AcDbEntity
8
0
100
AcDbPolyline
90
4
70
1
43
0.0
10
-13.713375000000001
20
-162.56036900000001
10
-7.2433110000000012
20
-162.56036900000001
10
-7.2433110000000012
20
-161.1403
10
-13.713375000000001
20
-161.1403
0
LWPOLYLINE
5
116
100
AcDbEntity
8
0
100
AcDbPolyline
90
4
70
1
43
0.0
10
-13.713375000000001
20
-134.25512000000001
10
-7.2433110000000012
20
-134.25512000000001
10
-7.2433110000000012
20
-131.39534699999999
10
-13.713375000000001
20
-131.39534699999999
0
LWPOLYLINE
5
117
100
AcDbEntity
8
0
100
AcDbPolyline
90
4
70
1
43
0.0
10
-18.743217000000001
20
-101.90567299999999
10
-18.743217000000001
20
-103.32522600000001
10
-11.523153000000001
20
-103.32522600000001
10
-11.523153000000001
20
-101.90567299999999
0
LWPOLYLINE
5
118
100
AcDbEntity
8
0
100
AcDbPolyline
90
4
70
1
43
0.0
10
-11.523153000000001
20
-97.625315000000015
10
-11.523153000000001
20
-96.185608999999999
10
-13.713375000000001
20
-96.185608999999999
10
-13.713375000000001
20
-97.625315000000015
0
LWPOLYLINE
5
119
100
AcDbEntity
8
0
100
AcDbPolyline
90
4
70
1
43
0.0
10
-12.273153000000001
20
-139.89508700000002
10
-13.713375000000001
20
-139.89508700000002
10
-13.713375000000001
20
-148.61531700000003
10
-12.273153000000001
20
-148.61531700000003
0
LWPOLYLINE
5
120
100
AcDbEntity
8
0
100
AcDbPolyline
90
4
70
1
43
0.0
10
-16.333370000000002
20
-193.89023899999998
10
-18.743217000000001
20
-193.89023899999998
10
-18.743217000000001
20
-207.34994300000005
10
-16.333370000000002
20
-207.34994300000005
0
LWPOLYLINE
5
121
100
AcDbEntity
8
0
100
AcDbPolyline
90
4
70
1
43
0.0
10
-10.453108
20
-203.18992900000001
10
-7.2433110000000012
20
-203.18992900000001
10
-7.2433110000000012
20
-193.82977700000001
10
-10.453108
20
-193.82977700000001
0
ENDSEC
0
SECTION
2
OBJECTS
0
DICTIONARY
5
C
100
AcDbDictionary
3
ACAD_GROUP
350
D
3
ACAD_MLINESTYLE
350
17
0
DICTIONARY
5
D
100
AcDbDictionary
0
DICTIONARY
5
1A
330
C
100
AcDbDictionary
0
DICTIONARY
5
17
100
AcDbDictionary
0
ENDSEC
0
EOF
